<?xml version="1.0" encoding="utf-8"?>
<!-- Generator: Adobe Illustrator 26.5.0, SVG Export Plug-In . SVG Version: 6.00 Build 0)  -->
<svg version="1.1" id="Layer_1" xmlns="http://www.w3.org/2000/svg" xmlns:xlink="http://www.w3.org/1999/xlink" x="0px" y="0px"
	 viewBox="0 0 128 128" style="enable-background:new 0 0 128 128;" xml:space="preserve">
<style type="text/css">
	.st0{fill:#8B5E3C;stroke:#000000;stroke-miterlimit:10;}
	.st1{fill:#F1F2F2;stroke:#000000;stroke-width:0.25;stroke-miterlimit:10;}
	.st2{stroke:#000000;stroke-width:0.25;stroke-miterlimit:10;}
	.st3{fill:#C49A6C;stroke:#000000;stroke-miterlimit:10;}
	.st4{font-family:'Copperplate';}
	.st5{font-size:130px;}
	.st6{fill:none;}
</style>
<path class="st0" d="M14.62,107.72c0,0,3.01,2.56,5.77,0c2.76-2.56,0.51-1.35,1.22-3.33c0.71-1.99,5.06-4.42,6.02-5.26
	c0.96-0.83,11.6-9.68,11.6-9.68s12.63-10.45,16.09-12.31c3.46-1.86,15.64-10.83,17.5-12.24c1.86-1.41,18.2-13.33,19.48-14.36
	c1.28-1.03,18.39-14.16,19.8-15.51c1.41-1.35,7.31-6.15,7.95-7.43c0.64-1.28,0.71-4.94-1.09-7.11s-3.85-4.71-7.24-5.27
	c-3.4-0.56-6.47-0.62-8.14,1.27c-1.67,1.89-41.7,41.24-43.74,43.94c-2.04,2.7-16.74,18.15-18.89,20.88
	c-2.14,2.73-9.07,8.29-10.24,9.55s-9.85,9.55-11.99,10.82s-1.85-1.39-4.56,1.27S14.62,107.72,14.62,107.72z"/>
<polygon class="st1" points="40.51,81.83 41.18,87.86 39.23,89.46 39.08,88.44 38.4,83.97 "/>
<polygon class="st1" points="34.94,87.09 38.96,87.67 39.23,89.46 33.16,88.65 "/>
<polygon class="st1" points="35.17,88.91 36.51,91.71 35.17,92.84 33.16,88.65 "/>
<polygon class="st1" points="29.96,91.63 34.41,91.25 35.17,92.84 30.71,93.17 28.17,93.37 "/>
<polygon class="st1" points="31.44,95.94 31.18,93.14 28.17,93.37 29.5,97.56 "/>
<polygon class="st1" points="25.37,96.01 29.01,96.01 29.5,97.56 23.6,97.63 "/>
<polygon class="st1" points="26.55,99.91 25.88,97.63 23.6,97.63 24.23,101.55 "/>
<polygon class="st1" points="20.66,100.2 24.01,100.2 24.23,101.55 19.26,101.32 "/>
<polygon class="st1" points="22.16,103.45 21.04,101.4 19.26,101.32 21.6,104.39 "/>
<path class="st2" d="M61.97,72.77c-5.43-1.46-7.15-6.68-7.15-6.68l2.57-2.83c0,0,3.61,6.9,7.57,7.39L61.97,72.77z"/>
<path class="st0" d="M114.47,109.62c0,0-3.01,2.56-5.77,0c-2.76-2.56-0.51-1.35-1.22-3.33c-0.71-1.99-5.06-4.42-6.02-5.26
	c-0.96-0.83-11.6-9.68-11.6-9.68S77.23,80.91,73.77,79.05c-3.46-1.86-15.64-10.83-17.5-12.24c-1.86-1.41-18.2-13.33-19.48-14.36
	s-18.39-14.16-19.8-15.51c-1.41-1.35-7.31-6.15-7.95-7.43c-0.64-1.28-0.71-4.94,1.09-7.11s3.85-4.71,7.24-5.27
	c3.4-0.56,6.47-0.62,8.14,1.27c1.67,1.89,41.7,41.24,43.74,43.94c2.04,2.7,16.74,18.15,18.89,20.88c2.14,2.73,9.07,8.29,10.24,9.55
	c1.17,1.27,9.85,9.55,11.99,10.82c2.14,1.27,1.85-1.39,4.56,1.27C117.64,107.51,114.47,109.62,114.47,109.62z"/>
<polygon class="st1" points="88.57,83.73 87.91,89.76 89.86,91.36 90.01,90.34 90.68,85.86 "/>
<polygon class="st1" points="94.14,88.99 90.12,89.57 89.86,91.36 95.93,90.54 "/>
<polygon class="st1" points="93.92,90.81 92.57,93.61 93.92,94.73 95.93,90.54 "/>
<polygon class="st1" points="99.12,93.53 94.67,93.15 93.92,94.73 98.37,95.07 100.92,95.27 "/>
<polygon class="st1" points="97.64,97.84 97.9,95.04 100.92,95.27 99.58,99.46 "/>
<polygon class="st1" points="103.72,97.91 100.08,97.91 99.58,99.46 105.48,99.52 "/>
<polygon class="st1" points="102.53,101.81 103.21,99.52 105.48,99.52 104.85,103.45 "/>
<polygon class="st1" points="108.42,102.1 105.07,102.1 104.85,103.45 109.83,103.22 "/>
<polygon class="st1" points="106.92,105.35 108.05,103.3 109.83,103.22 107.48,106.29 "/>
<path class="st2" d="M67.11,74.67c5.43-1.46,7.15-6.68,7.15-6.68l-2.57-2.83c0,0-3.61,6.9-7.57,7.39L67.11,74.67z"/>
<text transform="matrix(1 0 0 1 34.0111 100.5491)" class="st3 st4 st5">G</text>
<rect x="-0.23" y="35.41" class="st6" width="115.59" height="108.06"/>
<text transform="matrix(1 0 0 1 -0.2278 92.6113)" class="st3 st4 st5">G</text>
</svg>
